<svg id="b150edfa-fd54-40ac-94b2-7e4f2e82cdc6" data-name="Layer 1" xmlns="http://www.w3.org/2000/svg" viewBox="0 0 101.08 82.89"><defs><style>.af4ddc03-76e7-406a-886d-6de7d68f9396{fill:#fff;}</style></defs><path class="af4ddc03-76e7-406a-886d-6de7d68f9396" d="M993.39,551.44c-2.35,3.94-3.66,7.77-6.28,10.17-6,5.51-7.44,12.12-5.94,19.52.85,4.18-.85,5.54-4.35,6.78a25,25,0,0,1-18-.43c-2.48-1-4-2-3.35-5.07,1.72-8.59,0-16-7-22.08-2.26-2-3-5.65-4.69-9-6,1.71-11.5-.48-16.43-4.74a7.88,7.88,0,0,0-3-1.66c-7.32-1.86-7.76-3.11-4.73-10.89,3.42-8.81,6.62-18.27,16.54-22.4,1.37-.57,3.56-.93,4.54-.23a8.68,8.68,0,0,1,2.89,4.78c.12.5-2.29,2-3.72,2.45-8.86,2.93-10.55,6.2-8.13,17,4-2.65,8.1-3.62,12.47-.78.73.47,2.45-.88,3.7-.85,2.38.06,5.46-.33,7,1,3.85,3.24,5.43,1.59,7-2.23-7.14-6.15-3.26-14.39-3.76-21.84-.07-1,2-2.8,3.31-3.21a26.12,26.12,0,0,1,8.31-1.19c7.54.27,9.36,2.14,9.07,9.69-.21,5.6,2.1,11.81-3.57,16.42l3.33,5.11c3.71-4.72,8.11-5.36,13-2.79a1.66,1.66,0,0,0,1.42-.13c4.17-2.83,8.14-1.88,13,1.71,0-3.82.39-6.62-.1-9.25-.74-4-1.24-8.39-7.33-8-1.77.1-3.93-1.52-5.29-2.94-.39-.41,1-3.64,2.25-4.23a7.62,7.62,0,0,1,5.73,0c9.38,4.16,12.57,13.26,15.87,21.78,3,7.8,2.75,9.64-4.87,11.29a8.43,8.43,0,0,0-3.43,2C1004.07,551.11,998.81,553,993.39,551.44Z" transform="translate(-917.81 -506.49)"/></svg>