<svg id="bade8b5b-0f96-454a-8716-b715d69dbbca" data-name="Layer 1" xmlns="http://www.w3.org/2000/svg" viewBox="0 0 46.9 38.46"><defs><style>.aeae91f9-4d93-426e-a3cb-d92cf59efd73{fill:#333;}</style></defs><path class="aeae91f9-4d93-426e-a3cb-d92cf59efd73" d="M1007.15,525.39c-1.09,1.83-1.7,3.61-2.91,4.72a9,9,0,0,0-2.76,9.06c.39,1.94-.39,2.57-2,3.15a11.62,11.62,0,0,1-8.35-.2c-1.15-.45-1.84-.94-1.56-2.35.8-4,0-7.42-3.25-10.25-1-.92-1.4-2.62-2.17-4.16-2.8.8-5.34-.22-7.62-2.2a3.71,3.71,0,0,0-1.42-.77c-3.39-.86-3.6-1.44-2.19-5,1.59-4.09,3.07-8.48,7.67-10.4a2.66,2.66,0,0,1,2.11-.1,4,4,0,0,1,1.34,2.22c.06.23-1.06.91-1.72,1.13-4.12,1.36-4.9,2.88-3.78,7.88,1.87-1.23,3.76-1.68,5.79-.37.34.22,1.14-.4,1.72-.39,1.1,0,2.53-.15,3.24.45,1.79,1.5,2.52.74,3.26-1-3.31-2.85-1.51-6.67-1.74-10.13,0-.48.9-1.3,1.53-1.49a12.4,12.4,0,0,1,3.86-.56c3.5.13,4.34,1,4.21,4.5-.1,2.6,1,5.48-1.66,7.62l1.55,2.38a4.32,4.32,0,0,1,6-1.3.77.77,0,0,0,.66-.06c1.94-1.32,3.78-.87,6,.79a25.9,25.9,0,0,0,0-4.29c-.35-1.85-.58-3.9-3.41-3.74a3.8,3.8,0,0,1-2.45-1.36c-.18-.19.47-1.69,1-2a3.55,3.55,0,0,1,2.66,0c4.35,1.93,5.84,6.15,7.37,10.1,1.4,3.62,1.27,4.48-2.26,5.24a3.91,3.91,0,0,0-1.59.93C1012.11,525.24,1009.67,526.1,1007.15,525.39Z" transform="translate(-972.08 -504.54)"/></svg>