<svg id="bdd27538-5e53-48cd-8a02-deebd3112a44" data-name="Layer 1" xmlns="http://www.w3.org/2000/svg" viewBox="0 0 84.05 49.61"><defs><style>.e290879a-3796-4e5d-a29a-0119b3f74d8c{fill:#fff;}</style></defs><path class="e290879a-3796-4e5d-a29a-0119b3f74d8c" d="M944.49,531.54l3.77-3.71c-.55,1.92-1,3.35-1.59,5.46,3-2.47,5.76-2.75,8.24-.36,2.75,2.64,2.16,5.75,1,9a30.07,30.07,0,0,0-1.46,6.41c-.32,2.87-1.82,3.72-4.52,3.52a7.92,7.92,0,0,0-3.58.69c-2.11.94-3.56.56-4.8-1.41-1.46-2.34-3.31-4.44-4.61-6.85-1-1.86-2.08-4.07-2-6.08.14-4,4.16-6,7.78-4.34.8.37,1.55.83,3.32,1.78-.7-2-1.09-3.06-1.49-4.16Z" transform="translate(-934.95 -525.19)"/><path class="e290879a-3796-4e5d-a29a-0119b3f74d8c" d="M939.94,560.27c1.82-3.36,3.73-4.71,6.53-5q28.92-3.45,57.84-7c2.84-.35,4.9.73,7.65,3.34Z" transform="translate(-934.95 -525.19)"/><path class="e290879a-3796-4e5d-a29a-0119b3f74d8c" d="M975.89,557.76c4.62,3.27,4.08,7.77,4.06,12.59h11.79a13,13,0,0,1,3,.1c.58.14,1,.85,1.54,1.31-.47.39-.88,1-1.42,1.14-10.39,3.13-21.06,1.38-31.62,1.63-2,.05-4.12-1-6.13-1.74-.44-.16-.66-.95-1-1.45.65-.32,1.28-.91,1.93-.93,3.57-.09,7.15,0,10.72,0h3.28c.27-3.05.19-5.75.85-8.26C973.33,560.52,974.84,559.22,975.89,557.76Z" transform="translate(-934.95 -525.19)"/><path class="e290879a-3796-4e5d-a29a-0119b3f74d8c" d="M995.4,537.54c-.81-3.21-.62-6.42,2.12-8.46,2.31-1.72,5.17-3.41,8-3.72,7.93-.88,12.47,1.51,13.18,10.7.07,1,.15,1.94.29,2.91.31,2.14-.52,3.45-2.73,3.73l-16.59,2.13c-2.22.29-3.37-.74-3.66-2.86C995.75,540.5,995.59,539,995.4,537.54Zm8.7-10.58c-.93,1.31-1.72,2.51-1.77,2.48-3.77-2.24-4.35,1.24-5.33,3.18-1.19,2.35-.15,3.44,2.57,3.11,4.63-.57,9.26-1.16,13.88-1.83a16.43,16.43,0,0,0,3-1.06c-.46-1.19-.6-2.71-1.44-3.51C1011.58,526.07,1007.45,526.09,1004.1,527Zm-4.81,16.46c5.78-.75,11-1.35,16.14-2.17.75-.12,1.33-1.26,2-1.93-.87-.42-1.78-1.27-2.6-1.19q-7.64.78-15.22,2c-.76.12-1.35,1.27-2,1.94Z" transform="translate(-934.95 -525.19)"/><path class="e290879a-3796-4e5d-a29a-0119b3f74d8c" d="M944.57,531.45a3.56,3.56,0,0,0-1.23.07c-4,1.8-4.42,1.7-7.41-2.66l7.93-1.57c.21,1.41.43,2.83.63,4.25Z" transform="translate(-934.95 -525.19)"/></svg>