<svg id="b77e696f-23e1-46ae-8f4f-a43506452f00" data-name="Layer 1" xmlns="http://www.w3.org/2000/svg" viewBox="0 0 136.98 91.5"><defs><style>.ba78395d-8d43-4b49-84f6-757ef36ca928{fill:#333;}</style></defs><text x="-882" y="-489.02"/><path class="ba78395d-8d43-4b49-84f6-757ef36ca928" d="M896.38,514.35l2.29-2.25-1,3.31c1.81-1.5,3.49-1.67,5-.22,1.67,1.6,1.31,3.48.63,5.44a17.9,17.9,0,0,0-.89,3.88c-.19,1.74-1.1,2.26-2.74,2.14a4.55,4.55,0,0,0-2.17.42,2,2,0,0,1-2.91-.86c-.88-1.42-2-2.69-2.8-4.15a8,8,0,0,1-1.22-3.69,3.16,3.16,0,0,1,4.72-2.63c.49.22.94.5,2,1.08l-.9-2.53Z" transform="translate(-882 -489.02)"/><path class="ba78395d-8d43-4b49-84f6-757ef36ca928" d="M893.62,531.77c1.11-2,2.26-2.86,4-3.06q17.55-2.1,35.08-4.27c1.72-.21,3,.44,4.64,2Z" transform="translate(-882 -489.02)"/><path class="ba78395d-8d43-4b49-84f6-757ef36ca928" d="M915.42,530.25c2.8,2,2.48,4.71,2.46,7.63H925a8.44,8.44,0,0,1,1.82.06c.36.09.63.52.94.8-.29.23-.54.59-.86.69-6.3,1.9-12.78.84-19.17,1a11.27,11.27,0,0,1-3.73-1.06c-.26-.09-.39-.58-.59-.88.39-.19.78-.55,1.17-.56,2.17-.06,4.34,0,6.5,0h2a31,31,0,0,1,.52-5A9.49,9.49,0,0,1,915.42,530.25Z" transform="translate(-882 -489.02)"/><path class="ba78395d-8d43-4b49-84f6-757ef36ca928" d="M927.26,518c-.49-2-.38-3.9,1.28-5.13a10.69,10.69,0,0,1,4.82-2.26c4.81-.53,7.56.92,8,6.49,0,.59.09,1.18.18,1.76a1.75,1.75,0,0,1-1.66,2.27l-10,1.29a1.78,1.78,0,0,1-2.23-1.74C927.47,519.78,927.37,518.88,927.26,518Zm5.27-6.42c-.56.8-1,1.52-1.07,1.5-2.29-1.35-2.64.76-3.23,1.93-.72,1.43-.1,2.09,1.55,1.89,2.81-.35,5.62-.7,8.42-1.11a8.93,8.93,0,0,0,1.81-.65c-.28-.72-.36-1.64-.87-2.12A6.68,6.68,0,0,0,932.53,511.57Zm-2.92,10c3.51-.45,6.66-.82,9.79-1.31.45-.08.81-.77,1.21-1.18-.53-.25-1.08-.77-1.58-.72-3.09.32-6.17.71-9.23,1.2-.46.07-.82.77-1.23,1.17Z" transform="translate(-882 -489.02)"/><path class="ba78395d-8d43-4b49-84f6-757ef36ca928" d="M896.43,514.29a2.24,2.24,0,0,0-.74,0c-2.45,1.1-2.68,1-4.5-1.61l4.81-1c.13.86.26,1.72.38,2.58Z" transform="translate(-882 -489.02)"/><text x="-882" y="-489.02"/><text x="-882" y="-489.02"/><text x="-882" y="-489.02"/></svg>