<svg id="bfc45802-282f-4155-b57a-c4b7ab96bcab" data-name="Layer 1" xmlns="http://www.w3.org/2000/svg" viewBox="0 0 32.38 47.39"><defs><style>.b635251c-b9bb-427a-a668-e252269c07a2{fill:#333;}</style></defs><path class="b635251c-b9bb-427a-a668-e252269c07a2" d="M960.59,493.61a66,66,0,0,1-.09,7.11c-.08.72-1.1,1.59-1.89,1.93-5.67,2.4-11.39,4.69-17.08,7-.76.31-1.49.68-2.73,1.25,5.7,2.34,10.91,4.48,16.12,6.6,6,2.45,6.07,2.44,5.62,9a3,3,0,0,1-1.51,2.13c-9.65,4-19.35,8-29,11.88-.37.15-.77.22-1.57.44a62.83,62.83,0,0,1,.1-7.18c.08-.68,1.28-1.43,2.13-1.78,6.29-2.64,12.62-5.18,19.5-8-1.13-.54-1.81-.91-2.51-1.19-5.7-2.33-11.39-4.7-17.12-6.94a2.92,2.92,0,0,1-2.19-3.15c0-6-.06-6,5.48-8.27,8-3.26,15.89-6.57,23.84-9.84C958.48,494.32,959.34,494.05,960.59,493.61Zm-8.37,25.31c.3,1.39.6,2.79,1,4.48l1.24-1.16,1,2c.12-1.86.19-3.09.28-4.64l-3.58-.64L949,517.13l-4.3-1.27-14-6.43c-1.21,2.69-.43,4.06,1.75,4.84l.53-2.6.49.07c.09,1.13.19,2.26.34,4.12,1.43-2.28,1.66-.32,2.48.35l.48-3.11h.42l.37,3.31,2.57.85.44-2.56.48,0c.12,1.19.25,2.37.33,3.2l2.5.84c.24-.86.54-1.92.85-3,.38,2-.09,4.47,2.66,4.57.54-1.1,1.08-2.19,1.61-3.28v4.77l1.6-1.05.92,1.73C951.83,521,952,520,952.22,518.92Zm-12.58,11.27,1,3.32,2.52-.58c.1-1,.21-2.27.31-3.49l.57,0c.13.93.26,1.86.36,2.52l2.56-.7.39-3.33h.37l.47,2.43,2.6-.6c.09-1,.19-2.17.29-3.35h.52l.53,3a10.93,10.93,0,0,1,1.05-1.21c1.75,1.1,1.57-.26,1.56-1.24,0-1.72-1.26-2.31-3.34-1.49-3.92,1.53-7.81,3.15-11.7,4.75l-3.31,1.45c.14,1.37.27,2.56.4,3.74,0-2.82,1.74-.37,2.51-.76C939.42,533.16,939.53,531.68,939.64,530.19Zm4-27,.58-.06c.13.93.25,1.87.45,3.4l.93-1.78,1.52.8c.16-1.51.29-2.73.41-3.94l.53,0c.14.92.29,1.84.39,2.53l2.54-.81.33-3.24.51,0,.34,2.46,2.68-.72c.07-1,.16-2.13.25-3.29l.57,0,.42,2.73c2.24-.81,3.53-2,2.21-4.78l-17.88,7.15.43,4.33,1-1.83,1.46.88Zm-4.06,5.8V504.2l-2.92,1.16c.12,1.36.21,2.55.31,3.73l.41,0,.64-1.38Zm-5.7,26.68,1.67.84v-4.48l-2.9,1.17c.09,1.36.17,2.54.25,3.72l.47,0Zm1.82-30-4.65,2,4.65,1.94Zm21,19.5c2.79-3.13,2.67-4-.22-4.73C956.58,521.9,956.64,523.25,956.73,525.22Z" transform="translate(-928.33 -493.61)"/></svg>