<svg id="b464075d-5f0e-4a15-93c6-8d38cb1a2b63" data-name="Layer 1" xmlns="http://www.w3.org/2000/svg" viewBox="0 0 553.48 529.16"><defs><style>.eaab6853-b154-4894-80dc-395840557814{fill:#fff;}</style></defs><path d="M1055.63,635.17c-2.36,3.94-3.66,7.77-6.28,10.17-6,5.51-7.45,12.12-5.95,19.52.85,4.18-.84,5.55-4.34,6.78a25,25,0,0,1-18-.43c-2.48-1-4-2-3.35-5.06,1.73-8.6,0-16-7-22.09-2.26-2-3-5.65-4.69-9-6,1.72-11.5-.48-16.42-4.73a7.66,7.66,0,0,0-3.05-1.66c-7.32-1.86-7.76-3.12-4.73-10.9,3.43-8.81,6.62-18.26,16.55-22.4,1.36-.57,3.56-.93,4.54-.23a8.7,8.7,0,0,1,2.88,4.79c.13.49-2.28,2-3.71,2.44-8.87,2.94-10.55,6.21-8.14,17,4-2.65,8.1-3.62,12.47-.78.73.47,2.45-.87,3.7-.84,2.39.06,5.46-.33,7,1,3.84,3.24,5.43,1.6,7-2.22-7.13-6.15-3.25-14.4-3.75-21.85-.07-1,2-2.79,3.31-3.21a26,26,0,0,1,8.31-1.19c7.54.28,9.35,2.14,9.07,9.69-.21,5.6,2.1,11.81-3.57,16.43l3.33,5.11c3.71-4.72,8.1-5.36,13-2.79a1.64,1.64,0,0,0,1.41-.14c4.18-2.83,8.15-1.87,13,1.71,0-3.82.4-6.62-.09-9.25-.74-4-1.25-8.39-7.34-8-1.76.1-3.92-1.52-5.29-2.94-.39-.4,1-3.64,2.26-4.23a7.67,7.67,0,0,1,5.73,0c9.37,4.17,12.57,13.26,15.87,21.78,3,7.8,2.74,9.64-4.88,11.29a8.5,8.5,0,0,0-3.42,2C1066.31,634.84,1061.05,636.69,1055.63,635.17Z" transform="translate(-683.24 -145.04)"/><path d="M729.2,475.32l-6.15-13.88,3.3-2.78,5.77,7.08c2.59-.42,3.81-1.38,3.18-4.84-1.37-7.57,3.44-13.28,11.23-14,4.42-.41,8.84-.69,13.83-1.08.07,6.95.69,14.55-5.32,20.37-3.76,3.65-8.48,3.11-13.35,1.59l4.48-8.2-.57-.32-12.23,9.95,1.17,6.4c3.71-.19,7-.84,10.25-.44a17.54,17.54,0,0,1,15.28,15.57c1.25,12.36-3.16,22.51-12.86,30.3-.9.73-2,1.8-3,1.74-9.72-.66-20.23,3.81-29-2.29-9.57-6.62-13.12-16.8-12.74-28.36C702.79,481.72,713.36,471.61,729.2,475.32Zm25.77,22c-.21-7.06-2.13-11.87-7.12-14.89-1.12-.67-2.9-.23-4.38-.31.75,1.06,1.29,2.43,2.29,3.12a11.38,11.38,0,0,1,5.33,10.13c-.07,2.61-1,5.19-1.25,7.81a14.47,14.47,0,0,0,.43,3.48c1-.82,2.55-1.45,2.94-2.5A52.06,52.06,0,0,0,755,497.29Z" transform="translate(-683.24 -145.04)"/><path d="M745.2,324.23c2.67,2.91,6,3.38,9.58,2.29,3-.9,6.65-1.42,8.54-3.48,2.13-2.31,2.61-6.14,3.8-9.31l1.78.58-7.32,21.91,5.88-1.12-1-.72c-2.25,2.92-4.9,5.62-6.65,8.81-1.58,2.87-4.12,6.33-.81,8.95,3.76-5.38,7.41-10.54,11-15.78.3-.44-.36-1.57,0-1.95a35.33,35.33,0,0,1,3.29-3.18c1.87,3.94,4.45.85,6.43.38A25.24,25.24,0,1,1,761,361c-.28-1.42-.55-2.84-.83-4.3-10.42,3.12-11.45,4.2-9.27,10.09h-8.84l-.41-1.24c1.61-.95,3.54-1.61,4.76-2.92,2.21-2.37,2.53-11.24.56-14.1-6.34-9.17-12.82-18.25-19.83-28.2-2.27,4.89-4.24,9.11-6.15,13.22,13.57,12.79,16.28,24.93,8.4,36.63a25.22,25.22,0,0,1-45.26-20.67c3.61-13.37,14.56-19.4,32.71-17.78,1.51-3.34,3-6.83,4.68-10.25,1.57-3.23,3.33-6.38,5.16-9.84-2.3-2.41-4.85-3.73-8.19-.95a6.92,6.92,0,0,1-3.18,1.39,11.27,11.27,0,0,1-3.11-.38c.54-1,.83-2.54,1.66-2.95q7.26-3.58,14.76-6.64c.92-.38,2.28.28,3.43.47-.63,1-1.06,2.32-2,2.87a23.17,23.17,0,0,1-4.81,1.67l7.48,4.74-5.82,3.05,18.4,9.47Zm-31.05,13.12c-11.31-2.74-21.34,2.72-24.58,12.73a19.84,19.84,0,0,0,36.93,14.31c4.12-8.76.54-21.09-7.66-24.53-5.05,4.76-5.76,7.52-3.59,14a7.19,7.19,0,0,1-13.57,4.78c-1.34-3.56.27-8.27,4-9C713,348.3,712.75,342.71,714.15,337.35Zm61.79,2.25c3.44,3.8,4.27,10,11.55,10.08,1.58,0,4.28,3.95,4.38,6.16a8.34,8.34,0,0,1-4,6.53c-2,.94-6.54.4-7.52-1.1-3.85-5.86-9.17-3.61-14.16-4.28.48,9.6,6.78,16.82,15.74,18.6a19.81,19.81,0,0,0,16.74-34.42C792.1,335.46,782.85,334.72,775.94,339.6Zm-42.09-17.88-.8.72,17.89,25.37a64.22,64.22,0,0,0-.38-16c-.11-.87-1.35-1.82-2.29-2.34C743.51,326.83,738.67,324.3,733.85,321.72Zm39.31,17.84c-2.84,4.74-5.18,8.61-8,13.37,4.57.39,7.67.86,10.77.85,3.34,0,4.81-2.85,3.06-5.68C777.41,345.59,775.66,343.22,773.16,339.56Z" transform="translate(-683.24 -145.04)"/><path d="M867.82,460.29c-6-.82-5.63-5.06-4.67-10,1.14-.14,2.73.12,3.56-.55s1.81-2.53,1.54-3.55c-.39-1.48-1.83-2.69-2.82-4,2.47-1.72,4.91-3.51,7.45-5.12.61-.4,1.58-.25,2.87-.42-.11-2.37-.21-4.59-.37-7.87,5.82-.25,11.83-1.48,17.48-.53,9.18,1.55,12.55,14.42,6.55,22.35-1.32,1.74-1.79,4.12-3.11,5.86s-3.15,2.93-4.81,4.4c6.79,10.06,4.81,21.87,4.93,33.35.07,7.34-.16,14.67.08,22,.11,3.69-1.51,5.65-4.78,6.53a45.69,45.69,0,0,1-24.2,0c-3.25-.87-4.91-2.74-4.86-6.46.17-14.17-.33-28.35.3-42.49C863.16,469.35,866.06,465,867.82,460.29Zm16.06-23.06a5.64,5.64,0,0,1,2.3.19,47,47,0,0,1,7.2,4.63c.28.23-1.76,2.71-1.93,4.24-.13,1.13,1,2.41,1.61,3.62,1.74-1,4.21-1.45,5.11-2.92,3.69-6-.58-14.84-7.64-16.46C884.9,429.24,883.1,431,883.88,437.23ZM880,449.86v0a41.53,41.53,0,0,0,5.91-.09A3,3,0,0,0,888,448c.08-.71-1-2.19-1.69-2.22-4.27-.2-8.56-.17-12.83,0-.63,0-1.8,1.29-1.7,1.77.18.87,1.05,2.15,1.77,2.26A45.46,45.46,0,0,0,880,449.86Z" transform="translate(-683.24 -145.04)"/><path d="M1160.35,313.06c.93,6,1.72,11.16,2.58,16.72l-8.45.71,0,1.07a7.65,7.65,0,0,0,2,.45,24.27,24.27,0,0,1,15.52,3.67,14.29,14.29,0,0,0,15.74-.34c4.54-3.08,9.1-3.51,14.11-3.31a3.28,3.28,0,0,0,2.86-1.47l-8.68-.75c.89-5.4,1.76-10.7,2.71-16.55,2.61,0,5.94-.39,9.14.09a9.12,9.12,0,0,1,8,10.78c-2.32,15.84-8.19,30.52-15.61,44.57-2.38,4.51-6.91,6.87-12,7.17a141.43,141.43,0,0,1-17.47,0c-5.86-.38-10.91-3.24-13.06-8.73-5-12.82-10.09-25.7-13.89-38.91-3.06-10.62,1.38-15.17,12.57-15.14Zm-2.49,29.35v1h45.76c0-.33,0-.66,0-1Zm3,12v1h37.58l0-1Zm31.94,13.05c0-.33,0-.67,0-1H1165.3l0,1Z" transform="translate(-683.24 -145.04)"/><path d="M869.31,360.58c-3.63-8.45-7.69-17.25-11.13-26.29a18,18,0,0,1-.76-9.92c1.41-6,3.85-11.69,5.86-17.52,1.4-4.06-2.55-12.19-6.51-11.78-6,.64-5.47-3.3-6.21-6.69-.27-1.24-.28-2.54-.52-4.95l25.13,13.06.91-1.67c-4.06-2.18-8.12-4.38-12.19-6.54-5.56-3-8.16-9.23-5.7-16.31a68.29,68.29,0,0,1,1.81,7.64,7.51,7.51,0,0,0,4.69,6.42c4.94,2.38,9.69,5.15,14.5,7.79.25.14.34.54.65,1.06-1.42,1.7-2.56,4-4.41,5.14-10.36,6.38-11.37,17.79-13.88,27.71-1,4.08,3.51,10,6.39,14.49,1.94,3,5.4,5.11,8.74,8.13,7.93-4.86,16.22-10,24.63-15,1.58-.94,3.63-1.08,6.5-1.87l7-17.25c-4.57-1.31-8.71-2.41-12.78-3.72a17.56,17.56,0,0,1-3.53-2.15c1.23-.82,2.35-2,3.7-2.39,4.64-1.29,9.37-2.3,14.06-3.43a24.23,24.23,0,0,1,3.39-.82c3.54-.31,7.64-.74,9,3.41,1.21,3.79-1.13,6.73-4.75,8.26-8.38,3.54-8.65,12-12.06,18.7,4.24,1,8.24,1.39,11.79,2.87,8.14,3.41,9.89,9.93,5.11,17.29-2.24,3.44-.27,7.24,4,8,1.12.2,2.12,1.11,3.18,1.69-1.11.68-2.21,1.93-3.31,1.94q-32.25.17-64.5,0c-1.18,0-2.35-1.13-3.53-1.73Zm41-8.79-4.23,5.93,5.3,1.9.29-.71-4.4-3.3c3.62-1.44,6.2-2.27,8.59-3.47a14.6,14.6,0,0,0,4.94-3.6c.54-.68-.12-2.92-.91-3.94-2.15-2.75-7.76-2.9-10.46-.51C906.29,346.88,908,349.36,910.31,351.79Zm-13.67-10.53-14.77,9A10.1,10.1,0,0,0,896.64,341.26Z" transform="translate(-683.24 -145.04)"/><path d="M751.58,634.19H710.35c0-6.62-.26-13.05.09-19.45.22-4.1-1-6.25-5.19-6.68a8.81,8.81,0,0,1-4.26-1.24c-1.15-.89-2.57-2.68-2.38-3.83.94-5.74,2.36-11.4,3.64-17.08.15-.64.29-1.6.72-1.8,6.39-3.07,12.81-6.08,19.31-8.91.36-.15,1.63,1.26,2.18,2.13,3.75,5.92,9.47,6.08,12.76,0,1.3-2.4,2.52-2.68,4.68-1.72,4.86,2.18,9.84,4.12,14.53,6.6a7.65,7.65,0,0,1,3.18,4.56c1.27,5,1.93,10.13,3.09,15.15.72,3.1-.13,4.81-3.31,5.29-.65.1-1.26.51-1.91.56-5.1.43-6.3,3.36-6,8.09C751.88,621.79,751.58,627.77,751.58,634.19Zm-32.73-54.42c-3.57,1.57-6.51,2.71-9.29,4.15-1.54.79-3.68,1.81-4.07,3.16-1.56,5.36-2.53,10.88-3.76,16.54,2.46.74,4.33,1.63,6.24,1.77,1.74.13,4.4.07,5.18-1C718.33,597.34,720.86,589.49,718.85,579.77Zm24.46.46c-2.27,6.44-.44,12.15,1.72,17.74,3.41,8.83,5.31,9.5,14,5.44C758.92,587.72,757,584.77,743.31,580.23Z" transform="translate(-683.24 -145.04)"/><path d="M846.17,175.43l12.53-3.86,7.74,13.94c9.59-5.9,18.87-6.41,28.58.11l7.65-14,12.4,3.74c-3.52,6.18-6.87,11.75-9.88,17.5-1.11,2.13-2.17,4.75-2,7,.86,9.72-2.27,17.51-10.56,22.65-7.91,4.9-16.27,4.86-24.06-.27-8.12-5.34-11.31-13.1-10.08-22.84.25-2-.74-4.31-1.76-6.15C853.55,187.51,850.06,181.92,846.17,175.43Zm50.88,35.29L895.13,209l-7,8.4,1.24,1.16Q893.24,214.66,897.05,210.72Z" transform="translate(-683.24 -145.04)"/><path d="M1179.72,612c5.66,0,11.34-.24,17,.14a6.55,6.55,0,0,1,4.72,3.08,65.21,65.21,0,0,1,2.49,49.15,11.17,11.17,0,0,1-5.58,5.83c-12.16,5.39-24.55,5.25-36.88.33-3.65-1.46-5.66-4.14-6.76-8A70.45,70.45,0,0,1,1157,616.9c1.5-3.89,3.62-5.33,7.75-5C1169.7,612.25,1174.72,612,1179.72,612Zm.16,16.46c0,.21,0,.42-.05.63a50.61,50.61,0,0,0-7,.05c-16.92,2.33-14.55-.87-14.62,16.64,0,1.16.38,2.33.29,3.47-.32,3.94,1.92,5.26,5.34,5.5,6.12.43,12.29,1.62,18.34,1.16,22.12-1.66,18.85,1.34,19-21,0-2.92-1.25-4.16-4-4.45C1191.39,629.86,1185.64,629.12,1179.88,628.43Z" transform="translate(-683.24 -145.04)"/><path d="M1062.1,430.34c0,5.21.31,9.67-.18,14-.16,1.42-2.18,3.14-3.74,3.8-11.18,4.76-22.47,9.27-33.72,13.88-1.49.61-2.94,1.33-5.39,2.46,11.27,4.61,21.54,8.85,31.83,13,11.88,4.83,12,4.82,11.1,17.83a5.9,5.9,0,0,1-3,4.21c-19,8-38.2,15.69-57.33,23.46-.73.29-1.53.43-3.12.86,0-5-.32-9.65.2-14.17.16-1.34,2.54-2.82,4.21-3.52,12.43-5.21,24.93-10.24,38.51-15.77-2.25-1.07-3.57-1.8-5-2.36-11.25-4.61-22.48-9.27-33.8-13.7-3.08-1.2-4.33-2.81-4.33-6.23,0-11.85-.12-11.81,10.83-16.31,15.7-6.45,31.37-13,47.06-19.43C1057.93,431.74,1059.63,431.22,1062.1,430.34Zm-16.53,50c.6,2.75,1.19,5.49,1.91,8.85l2.46-2.3,2,4c.23-3.68.37-6.09.56-9.17l-7.08-1.25-6.2-3.66-8.48-2.5-27.54-12.69c-2.39,5.3-.86,8,3.45,9.55.35-1.72.69-3.43,1-5.15l1,.16c.18,2.23.37,4.46.68,8.12,2.82-4.5,3.27-.62,4.89.7.37-2.44.66-4.29.94-6.14h.84c.27,2.37.53,4.73.73,6.52l5.06,1.7c.27-1.52.58-3.29.89-5.06l.93.08c.25,2.34.49,4.68.66,6.3l4.94,1.68c.47-1.7,1.06-3.81,1.67-5.93.76,3.88-.17,8.82,5.25,9l3.18-6.47v9.41l3.16-2.08,1.82,3.42C1044.81,484.46,1045.17,482.41,1045.57,480.32Zm-24.83,22.25,2,6.55,5-1.15c.18-2.08.4-4.48.61-6.88l1.13.09c.26,1.84.51,3.68.69,5l5.06-1.39c.21-1.79.5-4.18.78-6.57l.72,0c.37,1.89.73,3.77.93,4.81l5.14-1.2c.17-2,.37-4.28.57-6.6l1,0c.32,1.88.65,3.76,1,6a21.75,21.75,0,0,1,2.06-2.39c3.45,2.16,3.1-.53,3.08-2.45,0-3.39-2.48-4.56-6.59-2.95-7.74,3-15.42,6.23-23.1,9.39l-6.54,2.86.79,7.38c.06-5.56,3.45-.73,5-1.5C1020.31,508.44,1020.52,505.5,1020.74,502.57Zm7.9-53.25,1.14-.13c.24,1.85.48,3.7.88,6.71l1.85-3.5,3,1.57.81-7.78,1,.09.77,5,5-1.6c.17-1.72.41-4.06.65-6.39l1,0c.25,1.8.49,3.59.67,4.87l5.29-1.44c.15-1.9.33-4.19.5-6.48l1.13.07c.27,1.8.55,3.59.83,5.4,4.41-1.61,7-3.92,4.35-9.45l-35.29,14.12c.27,2.79.51,5.17.84,8.55l1.92-3.61,2.87,1.73C1028.19,454.11,1028.41,451.71,1028.64,449.32Zm-8,11.46v-9.53l-5.75,2.3c.22,2.68.41,5,.6,7.36l.82.06,1.25-2.73Zm-11.24,52.67,3.28,1.65v-8.85l-5.72,2.31c.18,2.69.34,5,.49,7.36l.94.07C1008.69,515.15,1009,514.32,1009.37,513.45Zm3.58-59.19-9.18,4,9.18,3.83Zm41.52,38.49c5.51-6.17,5.28-7.86-.42-9.33C1054.17,486.2,1054.29,488.87,1054.47,492.75Z" transform="translate(-683.24 -145.04)"/><path d="M903.44,671.46c-4.66-1.36-9.24-3.26-14-3.9-3.48-.47-7.2.63-10.78,1.21-1.08.18-2,1.19-3.12,1.38-12.66,2.2-24.85,1.21-36.23-5.44-3.71-2.16-5.24-5.34-4-9.2.58-1.78,2.87-4.21,4.46-4.27,13-.46,23.66-6.35,33.3-14.38,3.73-3.11,6.53-2.84,9.92.39a45.73,45.73,0,0,0,8.1,5.77c5.15,3.07,10,2.69,14.66-1.41,5.39-4.7,10.59-2.93,12,4.08a71.12,71.12,0,0,1,1.76,14.77c-.13,8.14-3.17,10.55-11.29,10.21-1.49-.06-3-.17-4.49-.25Zm-26.6-3.89-.07-1.52c-8.56-5.46-15.16-5-21.81,1.52Zm40.72-4.76-1.4-1.58c-4,3.79-8.19,4-13.34,2.32-3.17-1-7.13.3-10.73.57l0,1.49c.76.55,1.49,1.53,2.28,1.57,5.95.35,11.94.94,17.85.5C914.09,667.54,915.78,664.52,917.56,662.81Zm-58.48-10.87a30.19,30.19,0,0,0,19.82-7.88c.91-.81.91-2.65,1.33-4-1.49,0-3.34-.48-4.41.21C870.43,643.77,865.25,647.58,859.08,651.94Zm48.57,7.94,2,.61c1-2.14,2.68-4.28,2.7-6.43,0-2.32-1.54-4.65-2.41-7l-2.24.56Z" transform="translate(-683.24 -145.04)"/><path d="M1053.62,319.89c-6.56-4.56-12-13.57-22.33-6,9.43-1.48,12.53,5.57,17.51,9.91l-1.31,1.77c-2.2-1.89-4.44-3.73-6.6-5.67-6.28-5.63-14-3.95-17.23,3.78l-13.2,31.49h70.07c6.44,0,7.73,1.07,7.76,6.28s-1.26,6.49-7.52,6.5q-36.21,0-72.43,0c-3.17,0-6.82.44-7.55-3.82-.61-3.6-1-7.43,3.78-9.13,1-.38,1.76-1.74,3-3.06-4.14-2.08-3.08-4.75-1.78-7.65,2.11-4.71,3.94-9.53,6-14.27,1.05-2.45,1.32-5.2,5.5-5.32,1.18,0,3.62-6.19,2.92-8.85-.84-3.17-4.43-5.64-6.88-8.35-.42-.47-1.23-1.05-1.69-.94-8.27,2.13-6.27-4.77-7.62-8.66a19.17,19.17,0,0,1-.36-3.57,34.27,34.27,0,0,1,4,1.42c5.92,3,11.88,6,17.67,9.31,4.88,2.76,9.64,5,15.52,3.13,1.35-.44,3.59.48,4.84,1.49,3.2,2.58,6.07,5.57,9.07,8.39ZM1051.87,359c-.12,1.74-.22,3.33-.34,5.1h23.29c-.08-1.79-.15-3.33-.23-5.1Zm-7.18,0h-18.88c-.09,1.8-.18,3.38-.29,5.34h19.78C1045,362,1044.87,360.58,1044.69,359Z" transform="translate(-683.24 -145.04)"/><path d="M713.24,200.58c0,6-.17,11.82.06,17.6.17,4.37-2.49,4.34-5.52,4.27-2.86-.07-5.8.43-5.77-4,.11-15.49.14-31,0-46.48,0-4.82,3-4.16,6-4.3,3.29-.15,5.46.45,5.28,4.55-.24,5.61-.06,11.25-.06,17.22h36.83c0-5.74.25-11.35-.07-16.93-.29-4.86,2.55-4.76,6-4.88,3.76-.13,5.41.95,5.36,5-.18,15-.22,30,0,45,.07,4.78-2.49,4.83-6,4.9-3.7.08-5.58-.86-5.37-5,.29-5.47.07-11,.07-16.89Z" transform="translate(-683.24 -145.04)"/><path d="M1039.34,174.89c-2.43,1.13-4.43,2.4-6.6,3a13.76,13.76,0,0,1-17.06-9.91,13.91,13.91,0,0,1,9.32-16.6,13.65,13.65,0,0,1,17.34,9.4c1.82,6.56,3.08,13.27,4.71,20.47,2.93-.62,5.61-1.32,8.33-1.73a14.61,14.61,0,0,1,3.67.39c-.36,1.33-.35,3-1.15,4-3.21,3.94-2.79,10.4-1,15.1,2.68,6.92,4.26,14.34,5.66,21.67.58,3.11-5.61,5.78-10.89,5.1-4.65-.59-7.37-4-6.68-8.67a32.85,32.85,0,0,0-5.76-24.16c-1.15-1.69-1.71-5.5-.68-6.64C1042,182.54,1040.83,179,1039.34,174.89Zm-9.92-18.25a8,8,0,1,0,7.7,8.17A8,8,0,0,0,1029.42,156.64Z" transform="translate(-683.24 -145.04)"/><path d="M1125.6,459.41l5.63-5.57c-.83,2.88-1.46,5-2.38,8.2,4.46-3.72,8.59-4.14,12.3-.55,4.09,4,3.21,8.62,1.53,13.45a45.21,45.21,0,0,0-2.18,9.61c-.48,4.31-2.71,5.58-6.74,5.29a11.61,11.61,0,0,0-5.34,1c-3.15,1.41-5.31.84-7.16-2.13-2.17-3.49-4.93-6.65-6.88-10.26-1.51-2.8-3.1-6.1-3-9.13.21-6,6.21-9,11.62-6.51,1.18.55,2.31,1.24,4.94,2.67l-2.22-6.24Z" transform="translate(-683.24 -145.04)"/><path d="M1011.1,181.26c.84-3.42,1.55-6.31,2.39-9.77,2.44,3.08,5.52,5.27,3.77,9.61a2.53,2.53,0,0,0,.42,2.27c4.62,4.18,2.77,7.84-.14,12.18a28.69,28.69,0,0,0-4.26,21.53c.68,3.83-.77,6.85-3.95,7.55a27.45,27.45,0,0,1-11.61-.38c-2.63-.61-2.25-7.6-.11-11.25,1-1.7,1.08-4,1.49-6s0-4.54,1.12-5.73c4.16-4.4,1.56-9.94,2.76-13.24-1.61-3.39-2.71-5.72-3.81-8.05,2.35.09,4.7.1,7,.3C1007.66,180.43,1009.09,180.86,1011.1,181.26Z" transform="translate(-683.24 -145.04)"/><path d="M848.32,170.71c-.4-7.24,2.54-12.33,7.55-16.34,10.12-8.1,39.84-8.06,49.88.06,4.89,4,7.81,8.94,7.26,16-4.38-.77-7.73-1.54-10.59-5.84-2.14-3.23-7.07-5.73-11.09-6.33a73,73,0,0,0-20.87,0c-4.05.58-9.17,2.92-11.2,6.13C856.44,168.79,852.88,169.41,848.32,170.71Z" transform="translate(-683.24 -145.04)"/><path d="M1118.81,502.5c2.73-5,5.56-7.06,9.74-7.57q43.14-5.18,86.25-10.55c4.24-.53,7.31,1.08,11.41,5Z" transform="translate(-683.24 -145.04)"/><path d="M1179.5,608.08c-6.33,0-12.67-.17-19,0-4.64.17-5.07-2.51-5-6.08s-.11-6.72,5-6.67q19.24.23,38.49,0c5-.06,5,3,5,6.62s-.35,6.26-5,6.12C1192.5,607.93,1186,608.08,1179.5,608.08Z" transform="translate(-683.24 -145.04)"/><path d="M1172.42,498.74c6.89,4.91,6.1,11.66,6.06,18.89h17.58a19.53,19.53,0,0,1,4.47.15c.87.22,1.54,1.28,2.29,2-.69.59-1.3,1.48-2.1,1.72-15.5,4.69-31.42,2.07-47.15,2.45-3,.07-6.15-1.56-9.15-2.62-.66-.24-1-1.43-1.45-2.18,1-.48,1.9-1.36,2.87-1.39,5.32-.14,10.65-.07,16-.08h4.89c.4-4.57.29-8.62,1.27-12.38C1168.6,502.88,1170.86,500.93,1172.42,498.74Z" transform="translate(-683.24 -145.04)"/><path d="M755,671H706.55c1.54-10,3-19.6,4.6-29.76h39.68C752.19,651.08,753.55,660.78,755,671Zm-22.18-3.61h18.35c-1.36-7.78-2.65-15.15-4-22.71H714.85c-1.54,7.66-3,14.85-4.55,22.5h18.83a65.55,65.55,0,0,1,.08-7.36c.14-1.27,1-2.45,1.61-3.67.66,1.29,1.7,2.52,1.89,3.87A55.43,55.43,0,0,1,732.8,667.41Z" transform="translate(-683.24 -145.04)"/><path d="M1201.52,468.41c-1.2-4.82-.92-9.63,3.16-12.69,3.45-2.59,7.71-5.12,11.85-5.58,11.83-1.32,18.6,2.27,19.65,16.05.11,1.45.23,2.91.44,4.36.46,3.21-.77,5.17-4.07,5.61-8.24,1.07-16.49,2.11-24.73,3.18-3.31.43-5-1.1-5.47-4.29C1202.05,472.84,1201.8,470.62,1201.52,468.41Zm13-15.87c-1.39,2-2.56,3.76-2.64,3.71-5.62-3.36-6.49,1.87-7.95,4.77-1.77,3.53-.23,5.17,3.82,4.67,6.91-.85,13.82-1.73,20.7-2.75a22.87,22.87,0,0,0,4.46-1.59c-.68-1.78-.89-4.06-2.14-5.26C1225.65,451.2,1219.48,451.23,1214.5,452.54Zm-7.19,24.68c8.62-1.12,16.37-2,24.07-3.25,1.12-.18,2-1.89,3-2.9-1.3-.63-2.66-1.9-3.88-1.78q-11.38,1.17-22.7,3c-1.13.18-2,1.9-3,2.9Z" transform="translate(-683.24 -145.04)"/><path d="M1149.93,219.26c2.3-6.2,4.16-11.48,6.21-16.69s6.68-10,3.42-16.68c-.49-1,2.63-4,4.46-5.7.45-.42,3.3.57,3.5,1.32.63,2.41,4.49,5,1.16,7.32-4,2.82-3.76,6.71-4.1,10.57-.48,5.45-.66,10.92-1.18,16.36-.17,1.78-.51,4-1.63,5.14-1.86,2-4.54,4.7-6.63,4.49C1153.27,225.21,1151.72,221.53,1149.93,219.26Z" transform="translate(-683.24 -145.04)"/><path d="M1209,219.75c-1.24,1.64-2.46,4.83-4.23,5.18s-5.55-1.42-6.28-3.17c-2.1-5-3.28-10.35-4.45-15.64-.71-3.22-.37-6.69-1.18-9.87-.57-2.22-1.81-4.81-3.58-6.1-3.89-2.82-1.11-5.61-.42-8.27.18-.68,3.19-1.5,3.55-1.09,1.79,2.1,6.66,1.69,4.94,7-.85,2.64.5,6.38,1.74,9.24,2.1,4.85,5.07,9.32,7.35,14.1C1207.57,213.46,1208,216.15,1209,219.75Z" transform="translate(-683.24 -145.04)"/><path d="M771.8,204c0,2.16-.1,4.32,0,6.48.18,3.12-1,4.56-4.32,4.51s-3.9-1.65-3.89-4.41q.1-15.48,0-30.95c0-2.75.65-4.41,3.86-4.45s4.53,1.34,4.35,4.5c-.13,2.14,0,4.3,0,6.69,8.63,1.3,4.35,7.85,4.86,12.24.2,1.7-2.11,3.7-3.27,5.56Z" transform="translate(-683.24 -145.04)"/><path d="M699.84,195.46c0,5.15-.08,10.29,0,15.43.07,3.08-1.37,4.06-4.25,4-2.71,0-3.94-1-4-3.8,0-3.54,1.12-7.22-3.46-9.67-1.29-.7-.65-5.27-.64-8.07,0-2.64-.9-5.6,3.08-6.93.9-.3,1-3.82,1-5.86,0-3.1.1-5.58,4.36-5.49s3.87,2.68,3.86,5.42C699.82,185.5,699.84,190.48,699.84,195.46Z" transform="translate(-683.24 -145.04)"/><path d="M1164.68,318.73a14.9,14.9,0,1,1,29.79.32,14.9,14.9,0,1,1-29.79-.32Zm25.86.09a11,11,0,1,0-10.65,11.1A11,11,0,0,0,1190.54,318.82Z" transform="translate(-683.24 -145.04)"/><path d="M1046.1,370.05c12,0,24-.06,35.93.09,1.52,0,3,1.18,4.56,1.81-1.55.77-3.09,2.19-4.64,2.2q-35.94.23-71.86,0c-1.53,0-3.05-1.17-4.57-1.79,1.55-.78,3.09-2.21,4.65-2.23C1022.14,370,1034.12,370.05,1046.1,370.05Z" transform="translate(-683.24 -145.04)"/><path d="M781.45,307.77c-4.07,5.42-9.53,6.47-15.2,3.45-2.21-1.17-5-1.32-7.56-2C763,306.17,774.9,305.44,781.45,307.77Z" transform="translate(-683.24 -145.04)"/><path d="M1125.72,459.27a5.5,5.5,0,0,0-1.83.1c-6,2.71-6.59,2.56-11.05-4l11.82-2.35q.48,3.18.95,6.37Z" transform="translate(-683.24 -145.04)"/><path d="M870.16,368c1.17,0,2.53-.39,3.44.09,1.14.61,2.82,2.16,2.64,2.89a5,5,0,0,1-3,3.08,13.08,13.08,0,0,1-6.4,0c-1.39-.37-2.41-2.08-3.6-3.19a17.59,17.59,0,0,1,3.47-2.87c.94-.46,2.28-.09,3.44-.09Z" transform="translate(-683.24 -145.04)"/><path d="M929.74,367.94a4.17,4.17,0,0,1,2.41.22c1.12.65,2.69,2.08,2.59,3-.5,4.17-4,3.09-6.62,3.08s-6,1-6.24-3c-.25-3.67,2.9-3.28,5.37-3.34Z" transform="translate(-683.24 -145.04)"/><path d="M745.33,324.38c-2-1.38-4-2.68-5.91-4.14-1.71-1.31-3.27-2.79-5.85-5,7.3-2.06,10.73,2.67,16.67,4.7-2.25,1.9-3.66,3.1-5,4.3Z" transform="translate(-683.24 -145.04)"/><path d="M1191.19,151.78l-5.33.26c-.12-5.92-.12-5.92,1.61-7C1188.68,147.22,1189.89,149.42,1191.19,151.78Z" transform="translate(-683.24 -145.04)"/><path class="eaab6853-b154-4894-80dc-395840557814" d="M755,497.29a52.06,52.06,0,0,1-1.76,6.84c-.39,1.05-1.93,1.68-2.94,2.5a14.47,14.47,0,0,1-.43-3.48c.3-2.62,1.18-5.2,1.25-7.81a11.38,11.38,0,0,0-5.33-10.13c-1-.69-1.54-2.06-2.29-3.12,1.48.08,3.26-.36,4.38.31C752.84,485.42,754.76,490.23,755,497.29Z" transform="translate(-683.24 -145.04)"/><path class="eaab6853-b154-4894-80dc-395840557814" d="M714.15,337.35c-1.4,5.36-1.2,10.95-8.49,12.3-3.71.69-5.32,5.4-4,9a7.19,7.19,0,0,0,13.57-4.78c-2.17-6.45-1.46-9.21,3.59-14,8.2,3.44,11.78,15.77,7.66,24.53a19.84,19.84,0,0,1-36.93-14.31C692.81,340.07,702.84,334.61,714.15,337.35Z" transform="translate(-683.24 -145.04)"/><path class="eaab6853-b154-4894-80dc-395840557814" d="M775.94,339.6c6.91-4.88,16.16-4.14,22.78,1.57A19.81,19.81,0,0,1,782,375.59c-9-1.78-15.26-9-15.74-18.6,5,.67,10.31-1.58,14.16,4.28,1,1.5,5.51,2,7.52,1.1a8.34,8.34,0,0,0,4-6.53c-.1-2.21-2.8-6.15-4.38-6.16C780.21,349.62,779.38,343.4,775.94,339.6Z" transform="translate(-683.24 -145.04)"/><path class="eaab6853-b154-4894-80dc-395840557814" d="M733.85,321.72c4.82,2.58,9.66,5.11,14.42,7.77.94.52,2.18,1.47,2.29,2.34a64.22,64.22,0,0,1,.38,16l-17.89-25.37Z" transform="translate(-683.24 -145.04)"/><path class="eaab6853-b154-4894-80dc-395840557814" d="M773.16,339.56c2.5,3.66,4.25,6,5.79,8.54,1.75,2.83.28,5.67-3.06,5.68-3.1,0-6.2-.46-10.77-.85C768,348.17,770.32,344.3,773.16,339.56Z" transform="translate(-683.24 -145.04)"/><path class="eaab6853-b154-4894-80dc-395840557814" d="M883.88,437.23c-.78-6.26,1-8,6.65-6.7,7.06,1.62,11.33,10.46,7.64,16.46-.9,1.47-3.37,2-5.11,2.92-.59-1.21-1.74-2.49-1.61-3.62.17-1.53,2.21-4,1.93-4.24a47,47,0,0,0-7.2-4.63A5.64,5.64,0,0,0,883.88,437.23Z" transform="translate(-683.24 -145.04)"/><path class="eaab6853-b154-4894-80dc-395840557814" d="M880,449.86a45.46,45.46,0,0,1-6.4-.1c-.72-.11-1.59-1.39-1.77-2.26-.1-.48,1.07-1.74,1.7-1.77,4.27-.16,8.56-.19,12.83,0,.64,0,1.77,1.51,1.69,2.22a3,3,0,0,1-2.14,1.85,41.53,41.53,0,0,1-5.91.09Z" transform="translate(-683.24 -145.04)"/><path class="eaab6853-b154-4894-80dc-395840557814" d="M1157.86,342.41h45.74c0,.34,0,.67,0,1h-45.76Z" transform="translate(-683.24 -145.04)"/><path class="eaab6853-b154-4894-80dc-395840557814" d="M1160.88,354.46h37.57l0,1h-37.58Z" transform="translate(-683.24 -145.04)"/><path class="eaab6853-b154-4894-80dc-395840557814" d="M1192.82,367.51h-27.5l0-1h27.51C1192.82,366.84,1192.82,367.18,1192.82,367.51Z" transform="translate(-683.24 -145.04)"/><path class="eaab6853-b154-4894-80dc-395840557814" d="M910.31,351.79c-2.36-2.43-4-4.91-.88-7.7,2.7-2.39,8.31-2.24,10.46.51.79,1,1.45,3.26.91,3.94a14.6,14.6,0,0,1-4.94,3.6c-2.39,1.2-5,2-8.59,3.47l4.4,3.3-.29.71-5.3-1.9Z" transform="translate(-683.24 -145.04)"/><path class="eaab6853-b154-4894-80dc-395840557814" d="M896.64,341.26a10.1,10.1,0,0,1-14.77,9Z" transform="translate(-683.24 -145.04)"/><path class="eaab6853-b154-4894-80dc-395840557814" d="M718.85,579.77c2,9.72-.52,17.57-5.7,24.63-.78,1.06-3.44,1.12-5.18,1-1.91-.14-3.78-1-6.24-1.77,1.23-5.66,2.2-11.18,3.76-16.54.39-1.35,2.53-2.37,4.07-3.16C712.34,582.48,715.28,581.34,718.85,579.77Z" transform="translate(-683.24 -145.04)"/><path class="eaab6853-b154-4894-80dc-395840557814" d="M743.31,580.23c13.65,4.54,15.61,7.49,15.68,23.18-8.65,4.06-10.55,3.39-14-5.44C742.87,592.38,741,586.67,743.31,580.23Z" transform="translate(-683.24 -145.04)"/><path class="eaab6853-b154-4894-80dc-395840557814" d="M897.05,210.72q-3.82,3.93-7.64,7.85l-1.24-1.16,7-8.4Z" transform="translate(-683.24 -145.04)"/><path class="eaab6853-b154-4894-80dc-395840557814" d="M1179.88,628.43c5.76.69,11.51,1.43,17.28,2,2.78.29,4,1.53,4,4.45-.13,22.31,3.14,19.31-19,21-6,.46-12.22-.73-18.34-1.16-3.42-.24-5.66-1.56-5.34-5.5.09-1.14-.29-2.31-.29-3.47.07-17.51-2.3-14.31,14.62-16.64a50.61,50.61,0,0,1,7-.05C1179.84,628.85,1179.86,628.64,1179.88,628.43Zm-1,2.71c-1.83,0-3.66,0-5.48,0-2.48,0-3.8.9-3.37,3.58.87,5.42,1.61,10.86,2.66,16.24a3.9,3.9,0,0,0,2.41,2.46c7,1.61,9.06.16,10.18-6.79.37-2.3.75-4.6,1.11-6.9C1187.75,631.11,1187.74,631.11,1178.89,631.14Z" transform="translate(-683.24 -145.04)"/><path class="eaab6853-b154-4894-80dc-395840557814" d="M876.84,667.57H855c6.65-6.5,13.25-7,21.81-1.52Z" transform="translate(-683.24 -145.04)"/><path class="eaab6853-b154-4894-80dc-395840557814" d="M917.56,662.81c-1.78,1.71-3.47,4.73-5.36,4.87-5.91.44-11.9-.15-17.85-.5-.79,0-1.52-1-2.28-1.57l0-1.49c3.6-.27,7.56-1.61,10.73-.57,5.15,1.71,9.32,1.47,13.34-2.32Z" transform="translate(-683.24 -145.04)"/><path class="eaab6853-b154-4894-80dc-395840557814" d="M859.08,651.94c6.17-4.36,11.35-8.17,16.74-11.68,1.07-.69,2.92-.17,4.41-.21-.42,1.36-.42,3.2-1.33,4A30.19,30.19,0,0,1,859.08,651.94Z" transform="translate(-683.24 -145.04)"/><path class="eaab6853-b154-4894-80dc-395840557814" d="M907.65,659.88V647.64l2.24-.56c.87,2.33,2.43,4.66,2.41,7,0,2.15-1.73,4.29-2.7,6.43Z" transform="translate(-683.24 -145.04)"/><path class="eaab6853-b154-4894-80dc-395840557814" d="M1051.87,359h22.72c.08,1.77.15,3.31.23,5.1h-23.29C1051.65,362.31,1051.75,360.72,1051.87,359Z" transform="translate(-683.24 -145.04)"/><path class="eaab6853-b154-4894-80dc-395840557814" d="M1044.69,359c.18,1.61.35,3,.61,5.34h-19.78c.11-2,.2-3.54.29-5.34Z" transform="translate(-683.24 -145.04)"/><path class="eaab6853-b154-4894-80dc-395840557814" d="M1029.42,156.64a8,8,0,0,1,7.7,8.17,8,8,0,1,1-7.7-8.17Z" transform="translate(-683.24 -145.04)"/><path class="eaab6853-b154-4894-80dc-395840557814" d="M732.8,667.41a55.43,55.43,0,0,0-.09-7.37c-.19-1.35-1.23-2.58-1.89-3.87-.56,1.22-1.47,2.4-1.61,3.67a65.55,65.55,0,0,0-.08,7.36H710.3c1.55-7.65,3-14.84,4.55-22.5h32.32c1.33,7.56,2.62,14.93,4,22.71Zm-8.11-21.17,6.22,6.22.55-3.56,4.7-1.45-.3-1.21Z" transform="translate(-683.24 -145.04)"/><path class="eaab6853-b154-4894-80dc-395840557814" d="M1214.5,452.54c5-1.31,11.15-1.34,16.25,3.55,1.25,1.2,1.46,3.48,2.14,5.26a22.87,22.87,0,0,1-4.46,1.59c-6.88,1-13.79,1.9-20.7,2.75-4,.5-5.59-1.14-3.82-4.67,1.46-2.9,2.33-8.13,7.95-4.77C1211.94,456.3,1213.11,454.5,1214.5,452.54Z" transform="translate(-683.24 -145.04)"/><path class="eaab6853-b154-4894-80dc-395840557814" d="M1207.31,477.22l-2.55-2.07c1-1,1.89-2.72,3-2.9q11.29-1.8,22.7-3c1.22-.12,2.58,1.15,3.88,1.78-1,1-1.86,2.72-3,2.9C1223.68,475.2,1215.93,476.1,1207.31,477.22Z" transform="translate(-683.24 -145.04)"/><path class="eaab6853-b154-4894-80dc-395840557814" d="M1190.54,318.82a11,11,0,1,1-22,.17,11,11,0,0,1,22-.17Zm-11-6.95a50,50,0,0,0-2.2,5.84,3.5,3.5,0,0,0,.65,3,3.07,3.07,0,0,0,3,.08,3.41,3.41,0,0,0,.8-2.94A50.15,50.15,0,0,0,1179.55,311.87Z" transform="translate(-683.24 -145.04)"/><path d="M1178.89,631.14c8.85,0,8.86,0,7.51,8.58-.36,2.3-.74,4.6-1.11,6.9-1.12,7-3.17,8.4-10.18,6.79a3.9,3.9,0,0,1-2.41-2.46c-1-5.38-1.79-10.82-2.66-16.24-.43-2.68.89-3.63,3.37-3.58C1175.23,631.17,1177.06,631.14,1178.89,631.14Zm5.75,4h-10.06c.7,5.17,1.33,9.84,2,14.73l6-.8C1183.29,644.46,1183.93,640,1184.64,635.12Z" transform="translate(-683.24 -145.04)"/><path d="M724.69,646.24h11.17l.3,1.21-4.7,1.45-.55,3.56Z" transform="translate(-683.24 -145.04)"/><path d="M1179.55,311.87a50.15,50.15,0,0,1,2.23,6,3.41,3.41,0,0,1-.8,2.94,3.07,3.07,0,0,1-3-.08,3.5,3.5,0,0,1-.65-3A50,50,0,0,1,1179.55,311.87Z" transform="translate(-683.24 -145.04)"/><path class="eaab6853-b154-4894-80dc-395840557814" d="M1184.64,635.12c-.71,4.92-1.35,9.34-2,13.93l-6,.8c-.67-4.89-1.3-9.56-2-14.73Z" transform="translate(-683.24 -145.04)"/></svg>