<svg id="b2926d16-aa46-45be-af04-d73b02f0ff7b" data-name="Layer 1" xmlns="http://www.w3.org/2000/svg" viewBox="0 0 63.92 93.57"><defs><style>.a46ad3d1-ed88-49d3-aee2-f219202d35f6{fill:#fff;}</style></defs><path class="a46ad3d1-ed88-49d3-aee2-f219202d35f6" d="M999.87,501.45c0,5.21.31,9.67-.18,14-.16,1.42-2.18,3.14-3.74,3.81-11.18,4.75-22.47,9.26-33.72,13.87-1.49.61-2.94,1.33-5.39,2.46,11.27,4.62,21.54,8.85,31.83,13,11.88,4.82,12,4.81,11.1,17.82a5.94,5.94,0,0,1-3,4.22c-19,7.95-38.2,15.68-57.33,23.45-.73.3-1.53.43-3.12.86,0-5-.32-9.65.2-14.17.16-1.34,2.54-2.82,4.21-3.52,12.43-5.2,24.93-10.23,38.51-15.77-2.24-1.07-3.57-1.79-5-2.36-11.25-4.6-22.48-9.27-33.8-13.7-3.08-1.2-4.33-2.81-4.33-6.22,0-11.86-.12-11.82,10.83-16.32,15.7-6.45,31.37-13,47.06-19.43C995.7,502.85,997.4,502.33,999.87,501.45Zm-16.53,50c.6,2.75,1.19,5.5,1.91,8.85l2.46-2.3c.6,1.21,1,2.07,2,4,.22-3.68.36-6.09.55-9.17l-7.08-1.25-6.2-3.66-8.48-2.5L941,532.7c-2.39,5.3-.86,8,3.45,9.55.35-1.72.69-3.43,1-5.14l1,.15c.18,2.23.37,4.46.68,8.12,2.82-4.5,3.27-.62,4.89.7.37-2.44.66-4.29.94-6.14h.84c.27,2.36.53,4.73.73,6.51l5.07,1.7c.26-1.52.57-3.29.88-5.06l.93.08c.25,2.34.49,4.68.66,6.31l4.94,1.67c.48-1.7,1.06-3.81,1.67-5.93.76,3.88-.17,8.82,5.25,9l3.18-6.48v9.41l3.17-2.07,1.81,3.41C982.58,555.57,982.94,553.52,983.34,551.43Zm-24.83,22.25,2,6.55,5-1.15c.19-2.07.4-4.47.61-6.87l1.13.08c.26,1.84.51,3.68.69,5l5.06-1.39c.21-1.79.5-4.18.78-6.56l.73,0,.92,4.81,5.14-1.2c.17-1.95.37-4.27.57-6.6l1,0c.33,1.88.65,3.76,1,6a23,23,0,0,1,2.06-2.39c3.45,2.16,3.1-.52,3.08-2.44-.05-3.4-2.48-4.57-6.59-3-7.74,3-15.41,6.24-23.1,9.39l-6.54,2.86.79,7.38c.06-5.56,3.45-.73,5-1.49C958.08,579.55,958.29,576.61,958.51,573.68Zm7.9-53.25,1.14-.13c.24,1.85.48,3.7.88,6.72l1.85-3.5,3,1.57.81-7.79,1,.09.77,5,5-1.6c.17-1.72.41-4.06.65-6.39l1,0c.25,1.8.49,3.6.67,4.87l5.29-1.43.51-6.49,1.12.07c.27,1.8.55,3.59.83,5.4,4.41-1.6,7-3.92,4.35-9.45l-35.29,14.13c.27,2.78.51,5.16.84,8.54l1.92-3.61,2.87,1.73C966,525.22,966.19,522.83,966.41,520.43Zm-8,11.46v-9.53l-5.75,2.3c.22,2.68.41,5,.6,7.36l.82.06,1.25-2.73Zm-11.24,52.67,3.28,1.65v-8.85l-5.72,2.31c.18,2.69.34,5,.5,7.36l.93.07C946.46,586.26,946.79,585.43,947.14,584.56Zm3.58-59.19-9.18,4,9.18,3.83Zm41.52,38.49c5.51-6.17,5.28-7.86-.42-9.33C991.94,557.31,992.07,560,992.24,563.86Z" transform="translate(-936.17 -501.45)"/></svg>