<svg id="a75fe8bb-bb0a-43f7-af90-f0ef4cabc014" data-name="Layer 1" xmlns="http://www.w3.org/2000/svg" viewBox="0 0 63.92 93.57"><path d="M992,493.61c0,5.2.31,9.67-.18,14-.16,1.42-2.18,3.14-3.74,3.8-11.19,4.76-22.48,9.27-33.73,13.87-1.49.61-2.93,1.34-5.38,2.47,11.26,4.61,21.54,8.85,31.83,13,11.88,4.83,12,4.82,11.1,17.82a5.9,5.9,0,0,1-3,4.22c-19.06,7.95-38.21,15.69-57.34,23.46-.72.29-1.52.42-3.11.86,0-5-.33-9.65.2-14.17.16-1.34,2.54-2.82,4.21-3.52,12.42-5.21,24.93-10.24,38.51-15.77-2.25-1.08-3.58-1.8-5-2.37-11.26-4.6-22.48-9.26-33.8-13.69-3.08-1.2-4.33-2.81-4.33-6.23,0-11.86-.12-11.82,10.82-16.31,15.7-6.45,31.37-13,47.07-19.44C987.85,495,989.55,494.49,992,493.61Zm-16.53,50c.59,2.75,1.18,5.49,1.91,8.85l2.45-2.3,2,4c.22-3.68.37-6.1.55-9.17l-7.07-1.25-6.21-3.66-8.48-2.5-27.54-12.7c-2.38,5.3-.85,8,3.46,9.56q.51-2.58,1-5.15l1,.16c.19,2.23.38,4.45.69,8.11,2.81-4.49,3.26-.61,4.89.71.37-2.44.66-4.29.94-6.14h.84c.27,2.37.53,4.73.73,6.52l5.06,1.7c.27-1.52.58-3.29.89-5.06l.93.08c.24,2.34.49,4.68.66,6.3,2,.69,3.52,1.2,4.94,1.67.47-1.69,1.06-3.8,1.66-5.92.76,3.87-.16,8.82,5.26,9l3.18-6.47v9.41l3.16-2.08,1.82,3.42C974.74,547.73,975.1,545.68,975.5,543.59Zm-24.84,22.25,2,6.55,5-1.15c.18-2.08.4-4.48.61-6.88l1.13.09c.25,1.84.51,3.68.69,5l5.06-1.39c.21-1.8.5-4.18.78-6.57l.72,0c.37,1.88.73,3.77.93,4.8l5.14-1.19c.17-1.95.37-4.28.57-6.6l1,0,1.05,6a19.7,19.7,0,0,1,2.06-2.39c3.45,2.16,3.1-.53,3.07-2.45,0-3.4-2.47-4.56-6.58-3-7.74,3-15.42,6.23-23.1,9.38l-6.54,2.86c.29,2.72.54,5,.79,7.38.06-5.55,3.44-.72,5-1.49C950.24,571.7,950.45,568.77,950.66,565.84Zm7.91-53.25,1.14-.13.87,6.71,1.86-3.5,3,1.57c.32-3,.57-5.38.82-7.78l1,.09.77,5,5-1.59c.18-1.72.42-4.06.66-6.4l1,0,.68,4.87,5.29-1.44c.14-1.9.32-4.19.5-6.48l1.12.07.84,5.39c4.41-1.6,7-3.91,4.35-9.44l-35.29,14.12c.27,2.79.51,5.17.84,8.54L955,518.6l2.87,1.74C958.12,517.38,958.34,515,958.57,512.59Zm-8,11.46v-9.53l-5.75,2.3c.22,2.68.41,5,.6,7.36l.82.06,1.25-2.74Zm-11.25,52.66,3.29,1.65v-8.84l-5.72,2.31c.18,2.69.34,5,.49,7.36l.94.06C938.62,578.42,939,577.59,939.29,576.71Zm3.59-59.18-9.19,4,9.19,3.83ZM984.4,556c5.5-6.17,5.28-7.86-.42-9.33C984.1,549.47,984.22,552.13,984.4,556Z" transform="translate(-928.33 -493.61)"/></svg>