<svg id="a36e2e39-b9e8-4dcd-a3ce-d73ed0aa4e21" data-name="Layer 1" xmlns="http://www.w3.org/2000/svg" viewBox="0 0 44.15 40.93"><defs><style>.a0299320-68af-40c4-816d-c7e985798130{fill:#333;}</style></defs><path class="a0299320-68af-40c4-816d-c7e985798130" d="M999.66,575a18.07,18.07,0,0,1,8.39.32,2,2,0,0,1,1.27.83c.56,1.1,1.42,1.17,2.47,1.14,1.78-.06,3.56,0,5.34,0s2.56.77,2.61,2.5q.13,5.34.26,10.67c0,1.73-.71,2.7-2,2.76s-2.28-.92-2.31-2.68c0-2.9,0-5.8,0-8.77-.67-.05-1-.1-1.42-.1l-16.4,0c-1.58,0-2.88-.65-3.28-1.68s.07-2.52,1.62-3.9c0,.83,0,1.44,0,2a1.75,1.75,0,0,0,1.73,1.9c1,.08,1.74-.79,1.78-2,0-.52,0-1,0-1.56Z" transform="translate(-975.85 -552.23)"/><path class="a0299320-68af-40c4-816d-c7e985798130" d="M982.17,567.35a7.81,7.81,0,0,1,.19,1.85,14.23,14.23,0,0,0,.44,5.9,26.5,26.5,0,0,1-.39,16.26,2.24,2.24,0,0,1-2.39,1.79,2,2,0,0,1-1.91-1.67,3.44,3.44,0,0,1,.2-1.64A22.23,22.23,0,0,0,978.8,577a2,2,0,0,0-.75-1.24,3.69,3.69,0,0,1-2-3.13,18.83,18.83,0,0,1,1.11-9.46,5.92,5.92,0,0,1,1.38-2,2.94,2.94,0,0,1,3.37-.68c1.28.58,1.49,1.8,1.47,3.51l-1.11-1.38a1.67,1.67,0,0,0-2.4-.5,1.63,1.63,0,0,0-.45,2.49,33.54,33.54,0,0,0,2.82,2.77Z" transform="translate(-975.85 -552.23)"/><path class="a0299320-68af-40c4-816d-c7e985798130" d="M997.94,568.69a5.51,5.51,0,1,1,5.48-5.58A5.5,5.5,0,0,1,997.94,568.69Zm0-3.37a2.15,2.15,0,1,0-2.18-2.09A2.16,2.16,0,0,0,997.92,565.32Z" transform="translate(-975.85 -552.23)"/><path class="a0299320-68af-40c4-816d-c7e985798130" d="M985.81,585.19v-2.13h28.08v2.13Z" transform="translate(-975.85 -552.23)"/><path class="a0299320-68af-40c4-816d-c7e985798130" d="M985.81,578a3.86,3.86,0,0,1,3.91-3.87,3.92,3.92,0,1,1-3.91,3.87Z" transform="translate(-975.85 -552.23)"/><path class="a0299320-68af-40c4-816d-c7e985798130" d="M988.24,556.12a3.83,3.83,0,0,1-3.82,3.93,3.92,3.92,0,0,1-4-3.93,4,4,0,0,1,3.93-3.89A3.88,3.88,0,0,1,988.24,556.12Z" transform="translate(-975.85 -552.23)"/><path class="a0299320-68af-40c4-816d-c7e985798130" d="M982.21,567.39c-.74-.82-1.5-1.61-2.21-2.46s-1-1.65-.08-2.39,1.69-.12,2.35.72a8.62,8.62,0,0,0,8.3,3.26,3.15,3.15,0,0,1,3.6,1.85,6.07,6.07,0,0,1-1.53.76,13.37,13.37,0,0,1-9.88-1.62,2.23,2.23,0,0,0-.59-.16Z" transform="translate(-975.85 -552.23)"/><path class="a0299320-68af-40c4-816d-c7e985798130" d="M996.52,569.3h2.78c0,3.05.05,6.08-.07,9.09,0,.43-.91,1.14-1.38,1.13a1.8,1.8,0,0,1-1.27-1.24C996.46,575.3,996.52,572.31,996.52,569.3Z" transform="translate(-975.85 -552.23)"/><path class="a0299320-68af-40c4-816d-c7e985798130" d="M997.92,565.32a2.14,2.14,0,0,1-2.18-2.09,2.17,2.17,0,1,1,2.18,2.09Zm1.63-2.19a1.64,1.64,0,0,0-1.72-1.58,1.6,1.6,0,0,0-1.55,1.74,1.53,1.53,0,0,0,1.64,1.5A1.6,1.6,0,0,0,999.55,563.13Z" transform="translate(-975.85 -552.23)"/><path class="a0299320-68af-40c4-816d-c7e985798130" d="M999.55,563.13a1.6,1.6,0,0,1-1.63,1.66,1.53,1.53,0,0,1-1.64-1.5,1.6,1.6,0,0,1,1.55-1.74A1.64,1.64,0,0,1,999.55,563.13Z" transform="translate(-975.85 -552.23)"/></svg>