<svg id="ed60ad08-79d0-4710-adb1-abbbf5860146" data-name="Layer 1" xmlns="http://www.w3.org/2000/svg" viewBox="0 0 169.38 157.05"><defs><style>.a4fd3e65-715a-4afc-b7ad-bb3bfe0a76b2{fill:#fff;}</style></defs><path class="a4fd3e65-715a-4afc-b7ad-bb3bfe0a76b2" d="M975.36,556.75c11.27-2.55,21.79-1.2,32.21,1.25,1.81.43,4.09,1.66,4.85,3.18,2.14,4.21,5.46,4.5,9.49,4.37,6.82-.23,13.65-.1,20.48-.06s9.83,2.93,10,9.58q.54,20.46,1,40.94c.14,6.62-2.71,10.36-7.88,10.59s-8.75-3.54-8.83-10.29c-.14-11.12,0-22.24,0-33.64-2.6-.2-4-.4-5.47-.39q-31.47,0-62.93.14c-6,0-11-2.47-12.55-6.45-1.7-4.4.23-9.67,6.21-15,0,3.2-.06,5.52,0,7.83.11,4.3,2.3,6.95,6.62,7.29,3.82.31,6.67-3,6.81-7.56.06-2,0-4,0-6Z" transform="translate(-884.02 -469.57)"/><path class="a4fd3e65-715a-4afc-b7ad-bb3bfe0a76b2" d="M908.27,527.55c.27,2.37,1,4.8.73,7.1a54.84,54.84,0,0,0,1.67,22.65,101.33,101.33,0,0,1-1.5,62.39c-1.49,4.37-4.2,7.22-9.16,6.86a7.53,7.53,0,0,1-7.3-6.41,12.91,12.91,0,0,1,.76-6.29,85.29,85.29,0,0,0,1.87-49.19c-.44-1.75-1.47-4-2.89-4.73-5.09-2.57-7.13-6.85-7.77-12-1.55-12.43-.43-24.63,4.27-36.31a22.29,22.29,0,0,1,5.29-7.69c3.6-3.37,8.22-4.79,12.93-2.62,4.9,2.25,5.68,6.9,5.61,13.46-2-2.46-3.13-3.85-4.25-5.27-2.53-3.22-5.62-4.09-9.19-1.91a6.25,6.25,0,0,0-1.74,9.54c3.18,3.89,7.18,7.11,10.83,10.62Z" transform="translate(-884.02 -469.57)"/><path class="a4fd3e65-715a-4afc-b7ad-bb3bfe0a76b2" d="M968.78,532.71a21.14,21.14,0,1,1,21-21.42A21.09,21.09,0,0,1,968.78,532.71Zm-.09-12.93a8.22,8.22,0,1,0-8.36-8A8.26,8.26,0,0,0,968.69,519.78Z" transform="translate(-884.02 -469.57)"/><path class="a4fd3e65-715a-4afc-b7ad-bb3bfe0a76b2" d="M922.25,596v-8.14H1030V596Z" transform="translate(-884.02 -469.57)"/><path class="a4fd3e65-715a-4afc-b7ad-bb3bfe0a76b2" d="M922.25,568.26a14.82,14.82,0,0,1,15-14.83,15,15,0,1,1-15,14.83Z" transform="translate(-884.02 -469.57)"/><path class="a4fd3e65-715a-4afc-b7ad-bb3bfe0a76b2" d="M931.55,484.48a14.7,14.7,0,0,1-14.66,15.09,15,15,0,0,1-15.33-15.08,15.2,15.2,0,0,1,15.07-14.92A14.87,14.87,0,0,1,931.55,484.48Z" transform="translate(-884.02 -469.57)"/><path class="a4fd3e65-715a-4afc-b7ad-bb3bfe0a76b2" d="M908.43,527.72c-2.84-3.14-5.78-6.19-8.48-9.45-2.39-2.88-3.94-6.31-.3-9.16,3.9-3.06,6.47-.47,9,2.76,8.1,10.41,19.35,14,31.86,12.52,6.4-.78,10.34.9,13.83,7.09-1.89,1-3.79,2.53-5.9,2.92-13.34,2.45-26.13,1.14-37.9-6.21a8.24,8.24,0,0,0-2.25-.64Z" transform="translate(-884.02 -469.57)"/><path class="a4fd3e65-715a-4afc-b7ad-bb3bfe0a76b2" d="M963.32,535.05H974c0,11.69.21,23.31-.25,34.89-.07,1.63-3.5,4.37-5.3,4.31s-4.81-3-4.88-4.75C963.1,558.05,963.32,546.58,963.32,535.05Z" transform="translate(-884.02 -469.57)"/><path class="a4fd3e65-715a-4afc-b7ad-bb3bfe0a76b2" d="M968.69,519.78a8.22,8.22,0,1,1,.12-16.44,8.22,8.22,0,0,1-.12,16.44Zm6.26-8.39a6.32,6.32,0,0,0-6.61-6.07,6.12,6.12,0,0,0-6,6.65c.38,3.69,2.57,5.71,6.28,5.79A6.18,6.18,0,0,0,975,511.39Z" transform="translate(-884.02 -469.57)"/><path class="a4fd3e65-715a-4afc-b7ad-bb3bfe0a76b2" d="M975,511.39a6.18,6.18,0,0,1-6.28,6.37c-3.71-.08-5.9-2.1-6.28-5.79a6.12,6.12,0,0,1,6-6.65A6.32,6.32,0,0,1,975,511.39Z" transform="translate(-884.02 -469.57)"/></svg>